# xmcd
# Track frame offsets:
# 150
# 11483
# 27371
# 37915
# 60151
# 67242
# 93317
# 107558
# 156768
# 164097
# 172917
# 192798
#
# Disc length: 2744 seconds
# Revision: 0
# Processed by: cddbd v1.5.2PL0 Copyright (c) Steve Scherf et al.
# Submitted via: VisiTrax 2.10.3.257 - For more info visit www.synapsa.com
#
DISCID=8f0ab60c
DTITLE=4 Tops - Reach out I'll be there Disk2
DYEAR=1900
DGENRE=Motown
TTITLE0=Bernadette
TTITLE1=I cant help myself
TTITLE2=Walk away Renee
TTITLE3=Baby I need your lovin
TTITLE4=Its the same old song
TTITLE5=Macarthur Park
TTITLE6=Still Water
TTITLE7=Always and forever
TTITLE8=Something about you
TTITLE9=Keeper of the Castle
TTITLE10=Ask the Lonely
TTITLE11=In the Still of the Night
EXTD=
EXTT0=
EXTT1=
EXTT2=
EXTT3=
EXTT4=
EXTT5=
EXTT6=
EXTT7=
EXTT8=
EXTT9=
EXTT10=
EXTT11=
PLAYORDER=
